<?xml version="1.0" standalone="no"?>
<!DOCTYPE svg PUBLIC "-//W3C//DTD SVG 20010904//EN"
 "http://www.w3.org/TR/2001/REC-SVG-20010904/DTD/svg10.dtd">
<svg version="1.0" xmlns="http://www.w3.org/2000/svg"
 width="1182.000000pt" height="1182.000000pt" viewBox="0 0 1182.000000 1182.000000"
 preserveAspectRatio="xMidYMid meet">
<metadata>
Created by potrace 1.11, written by Peter Selinger 2001-2013
</metadata>
<g transform="translate(0.000000,1182.000000) scale(0.100000,-0.100000)"
fill="#000000" stroke="none">
<path d="M0 5915 l0 -5905 5905 0 5905 0 0 5905 0 5905 -5905 0 -5905 0 0
-5905z m2294 1470 c404 -61 693 -318 785 -697 11 -46 23 -107 26 -135 l7 -53
-301 0 -301 0 -4 23 c-3 12 -7 48 -10 79 -14 134 -86 243 -193 291 -83 37
-213 53 -305 38 -143 -24 -217 -78 -277 -204 -73 -153 -96 -333 -88 -681 10
-461 76 -631 273 -705 145 -56 368 -25 473 65 67 58 121 187 121 289 l0 35
301 0 302 0 -6 -69 c-9 -108 -34 -197 -87 -306 -156 -324 -491 -505 -936 -505
-295 0 -525 80 -701 244 -172 160 -269 342 -325 606 -17 78 -21 146 -25 375
-4 251 -3 293 16 401 48 283 150 494 318 655 146 141 340 234 548 262 75 10
299 6 389 -8z m1920 -122 c19 -60 141 -441 271 -848 130 -407 240 -743 244
-747 5 -6 213 633 508 1565 l44 137 400 0 399 0 0 -1245 0 -1245 -305 0 -305
0 0 308 c1 191 11 518 29 867 16 308 27 561 26 562 -1 2 -134 -387 -296 -865
l-294 -867 -204 0 -203 0 -294 864 c-162 476 -295 866 -297 868 -2 1 -2 -23 0
-55 26 -437 53 -1143 53 -1383 l0 -299 -300 0 -300 0 0 1245 0 1245 394 0 395
0 35 -107z m4016 -1125 c250 -677 456 -1237 458 -1245 3 -11 -54 -13 -320 -13
l-324 0 -43 138 c-23 75 -56 181 -73 235 l-31 97 -407 0 -407 0 -69 -226 c-38
-124 -71 -230 -75 -235 -3 -6 -133 -8 -326 -7 l-320 3 456 1243 455 1242 286
0 285 0 455 -1232z m1656 1217 c133 -23 214 -51 333 -111 260 -132 443 -349
541 -642 101 -302 89 -742 -29 -1036 -131 -328 -405 -564 -763 -658 -79 -20
-108 -22 -590 -25 l-508 -4 0 1245 0 1246 464 0 c372 0 481 -3 552 -15z"/>
<path d="M7361 6247 c-68 -221 -126 -410 -129 -419 -4 -17 13 -18 257 -18 143
0 261 3 261 7 0 14 -252 818 -258 825 -4 4 -63 -174 -131 -395z"/>
<path d="M9470 6124 l0 -787 158 5 c126 4 169 10 220 27 251 86 362 319 362
756 0 403 -96 633 -304 731 -87 41 -165 54 -318 54 l-118 0 0 -786z"/>
</g>
</svg>
